<?xml version="1.0" standalone="no"?><!DOCTYPE svg PUBLIC "-//W3C//DTD SVG 1.1//EN" "http://www.w3.org/Graphics/SVG/1.1/DTD/svg11.dtd"><svg t="1769520906023" class="icon" viewBox="0 0 1024 1024" version="1.1" xmlns="http://www.w3.org/2000/svg" p-id="1837" xmlns:xlink="http://www.w3.org/1999/xlink" width="200" height="200"><path d="M512 32c265.056 0 480 214.912 480 480 0 265.056-214.944 480-480 480-265.088 0-480-214.944-480-480C32 246.912 246.912 32 512 32z" fill="#F7B239" p-id="1838"></path><path d="M259.808 764.192C87.136 591.488 73.536 320 218.976 131.744a486.4 486.4 0 0 0-46.4 40.832c-187.424 187.456-187.424 491.36 0 678.784 187.456 187.456 491.36 187.456 678.784 0 14.784-14.752 28.416-30.24 40.832-46.368-188.256 145.472-459.712 131.872-632.384-40.8zM512 793.6a315.072 315.072 0 0 1-85.28-11.712 17.824 17.824 0 0 1 9.6-34.304 279.392 279.392 0 0 0 151.328 0 17.824 17.824 0 0 1 9.6 34.304A314.88 314.88 0 0 1 512 793.6z" fill="#E09B2D" p-id="1839"></path><path d="M753.28 589.216c-133.056 133.056-349.536 133.056-482.592 0a17.824 17.824 0 0 0-25.184 25.184 375.616 375.616 0 0 0 266.464 110.144c96.512 0 193.024-36.704 266.528-110.144a17.888 17.888 0 0 0 0-25.184 17.856 17.856 0 0 0-25.216 0zM299.52 465.28a65.92 65.92 0 0 0 65.824-65.824c0-36.288-29.536-65.824-65.824-65.824s-65.824 29.536-65.824 65.824A65.92 65.92 0 0 0 299.52 465.28z m424.96-131.648a65.92 65.92 0 0 0-65.824 65.824 65.92 65.92 0 0 0 65.824 65.824 65.888 65.888 0 0 0 65.824-65.824 65.92 65.92 0 0 0-65.824-65.824z" fill="#4D4D4D" p-id="1840"></path></svg>